<svg width="70" height="71" viewBox="0 0 70 71" fill="none" xmlns="http://www.w3.org/2000/svg">
<g filter="url(#filter0_dd_2_138)">
<path d="M25.1411 29.6518C24.8836 29.5994 24.8833 29.2321 25.1392 29.1719V29.1719C30.0874 28.008 33.9118 24.0077 34.8119 19.0047L34.8684 18.6911C34.9202 18.4028 35.3325 18.3996 35.3889 18.687L35.4857 19.1805C36.451 24.0983 40.186 28.0069 45.0548 29.1946V29.1946C45.3143 29.2579 45.3147 29.6265 45.0562 29.6939V29.6939C40.1756 30.9664 36.4315 34.9225 35.45 39.8699L35.3918 40.1636C35.335 40.4498 34.9241 40.4454 34.8735 40.158L34.7632 39.532C33.8904 34.5745 30.0738 30.6555 25.1411 29.6518V29.6518Z" fill="white"/>
</g>
<path d="M44.4866 32.5655C44.579 32.3445 45.3006 32.3445 45.393 32.5655C45.5295 32.8921 45.7035 33.1981 45.9233 33.418C46.1432 33.6379 46.4493 33.8118 46.7758 33.9483C46.9969 34.0407 46.9969 34.7623 46.7758 34.8547C46.4493 34.9912 46.1432 35.1652 45.9233 35.385C45.7035 35.6049 45.5295 35.911 45.393 36.2375C45.3006 36.4586 44.579 36.4586 44.4866 36.2375C44.3501 35.911 44.1762 35.6049 43.9563 35.385C43.7365 35.1652 43.4304 34.9912 43.1039 34.8547C42.8828 34.7623 42.8828 34.0407 43.1039 33.9483C43.4304 33.8118 43.7365 33.6379 43.9563 33.418C44.1762 33.1981 44.3501 32.8921 44.4866 32.5655Z" fill="white"/>
<path d="M29.2664 19.4143C29.1381 18.9683 29.6339 18.6032 30.0217 18.8583L30.1935 18.9713C30.6812 19.292 31.2847 19.3837 31.8456 19.2222L31.9189 19.2012C32.3787 19.0688 32.7439 19.5959 32.4585 19.9799L31.9948 20.6037C31.8966 20.7358 31.8697 20.9078 31.9228 21.0635L32.1226 21.6487C32.2832 22.1194 31.7329 22.5105 31.3413 22.204L30.8857 21.8475C30.75 21.7413 30.5692 21.7125 30.4072 21.7712L29.6321 22.0521C29.1798 22.216 28.7797 21.7092 29.044 21.3072L29.4514 20.6878C29.5315 20.5659 29.5545 20.415 29.5141 20.2748L29.2664 19.4143Z" fill="white"/>
<path d="M44.295 15.0004L44.1169 17.7804C44.061 18.6535 44.389 19.5075 45.015 20.1187L46.8944 21.9536L44.269 21.8734C43.3945 21.8466 42.5519 22.2029 41.962 22.849L40.0836 24.906L40.2616 22.1261C40.3175 21.253 39.9895 20.399 39.3635 19.7878L37.4841 17.9528L40.1095 18.0331C40.984 18.0598 41.8266 17.7035 42.4166 17.0574L44.295 15.0004Z" fill="white"/>
<path d="M29.1182 33.9168C29.4027 34.0115 29.3877 34.4188 29.0971 34.4923L27.7564 34.8316C27.6572 34.8567 27.5776 34.9306 27.5453 35.0277L27.1087 36.34C27.0141 36.6244 26.6068 36.6095 26.5333 36.3188L26.194 34.9781C26.1689 34.8789 26.095 34.7994 25.9979 34.7671L24.6856 34.3305C24.4012 34.2359 24.4161 33.8285 24.7067 33.755L26.0474 33.4157C26.1466 33.3906 26.2262 33.3167 26.2585 33.2196L26.6951 31.9074C26.7897 31.6229 27.197 31.6379 27.2706 31.9285L27.6098 33.2692C27.6349 33.3684 27.7089 33.448 27.806 33.4803L29.1182 33.9168Z" fill="white"/>
<defs>
<filter id="filter0_dd_2_138" x="0.647633" y="0.173145" width="68.9021" height="70.5028" filterUnits="userSpaceOnUse" color-interpolation-filters="sRGB">
<feFlood flood-opacity="0" result="BackgroundImageFix"/>
<feColorMatrix in="SourceAlpha" type="matrix" values="0 0 0 0 0 0 0 0 0 0 0 0 0 0 0 0 0 0 127 0" result="hardAlpha"/>
<feOffset dy="6"/>
<feGaussianBlur stdDeviation="12.15"/>
<feComposite in2="hardAlpha" operator="out"/>
<feColorMatrix type="matrix" values="0 0 0 0 0.223529 0 0 0 0 0.521569 0 0 0 0 0.933333 0 0 0 0.3 0"/>
<feBlend mode="normal" in2="BackgroundImageFix" result="effect1_dropShadow_2_138"/>
<feColorMatrix in="SourceAlpha" type="matrix" values="0 0 0 0 0 0 0 0 0 0 0 0 0 0 0 0 0 0 127 0" result="hardAlpha"/>
<feOffset dx="-2" dy="-1"/>
<feGaussianBlur stdDeviation="6.45"/>
<feComposite in2="hardAlpha" operator="out"/>
<feColorMatrix type="matrix" values="0 0 0 0 0.976471 0 0 0 0 0.65098 0 0 0 0 0.843137 0 0 0 0.3 0"/>
<feBlend mode="normal" in2="effect1_dropShadow_2_138" result="effect2_dropShadow_2_138"/>
<feBlend mode="normal" in="SourceGraphic" in2="effect2_dropShadow_2_138" result="shape"/>
</filter>
</defs>
</svg>
