<svg width="23" height="27" viewBox="0 0 23 27" fill="none" xmlns="http://www.w3.org/2000/svg">
<g id="Group 1000007872">
<g id="Group 1000007850">
<path id="Star 4" d="M19.7981 17.4842C19.9592 17.0489 20.5749 17.0489 20.736 17.4842L20.9227 17.9886C20.9733 18.1255 21.0812 18.2334 21.2181 18.284L21.7225 18.4707C22.1578 18.6318 22.1578 19.2475 21.7225 19.4085L21.2181 19.5952C21.0812 19.6459 20.9733 19.7538 20.9227 19.8906L20.736 20.3951C20.5749 20.8304 19.9592 20.8304 19.7981 20.3951L19.6115 19.8906C19.5608 19.7538 19.4529 19.6459 19.3161 19.5952L18.8116 19.4085C18.3763 19.2475 18.3763 18.6318 18.8116 18.4707L19.3161 18.284C19.4529 18.2334 19.5608 18.1255 19.6115 17.9886L19.7981 17.4842Z" fill="url(#paint0_linear_5_117)"/>
<path id="Star 6" d="M4.86039 2.18043C5.20446 1.36596 6.35868 1.36596 6.70275 2.18043L7.23436 3.43885C7.33568 3.67869 7.52654 3.86956 7.76639 3.97088L9.0248 4.50248C9.83927 4.84655 9.83927 6.00077 9.0248 6.34484L7.76639 6.87645C7.52654 6.97777 7.33568 7.16863 7.23436 7.40848L6.70275 8.66689C6.35868 9.48136 5.20446 9.48136 4.86039 8.66689L4.32879 7.40848C4.22747 7.16863 4.0366 6.97777 3.79676 6.87645L2.53834 6.34484C1.72387 6.00077 1.72387 4.84655 2.53834 4.50248L3.79676 3.97088C4.0366 3.86956 4.22747 3.67869 4.32879 3.43885L4.86039 2.18043Z" fill="url(#paint1_linear_5_117)"/>
<path id="Star 5" d="M17.5335 4.51958L17.9093 5.53521C18.2131 6.35636 18.8606 7.0038 19.6817 7.30765L20.6973 7.68347L19.6817 8.05928C18.8606 8.36314 18.2131 9.01057 17.9093 9.83173L17.5335 10.8474L17.1576 9.83173C16.8538 9.01057 16.2064 8.36314 15.3852 8.05928L14.3696 7.68347L15.3852 7.30765C16.2064 7.0038 16.8538 6.35636 17.1576 5.53521L17.5335 4.51958Z" fill="url(#paint2_linear_5_117)"/>
<path id="Star 7" d="M5.45678 19.5537C5.80867 19.2511 6.34721 19.5495 6.27711 20.0083L6.10282 21.1492C6.08078 21.2934 6.12286 21.4401 6.21803 21.5508L6.97066 22.4257C7.27334 22.7776 6.97493 23.3161 6.51609 23.246L5.37521 23.0718C5.23095 23.0497 5.08427 23.0918 4.97364 23.187L4.09868 23.9396C3.7468 24.2423 3.20826 23.9439 3.27835 23.485L3.45264 22.3441C3.47468 22.1999 3.4326 22.0532 3.33744 21.9426L2.5848 21.0676C2.28212 20.7157 2.58054 20.1772 3.03937 20.2473L4.18026 20.4216C4.32451 20.4436 4.4712 20.4015 4.58183 20.3064L5.45678 19.5537Z" fill="url(#paint3_linear_5_117)"/>
</g>
<path id="Star 3" d="M11.5362 6.0961C11.6973 5.66079 12.313 5.66079 12.4741 6.09609L13.8555 9.82927C14.4632 11.4716 15.758 12.7664 17.4004 13.3742L21.1335 14.7556C21.5688 14.9166 21.5688 15.5323 21.1335 15.6934L17.4004 17.0748C15.758 17.6825 14.4632 18.9774 13.8555 20.6197L12.4741 24.3529C12.313 24.7882 11.6973 24.7882 11.5362 24.3529L10.1548 20.6197C9.5471 18.9774 8.25224 17.6825 6.60992 17.0748L2.87675 15.6934C2.44144 15.5323 2.44144 14.9166 2.87675 14.7556L6.60992 13.3742C8.25224 12.7664 9.5471 11.4716 10.1548 9.82927L11.5362 6.0961Z" fill="url(#paint4_linear_5_117)"/>
</g>
<defs>
<linearGradient id="paint0_linear_5_117" x1="18.8513" y1="17.7518" x2="22.9898" y2="24.0685" gradientUnits="userSpaceOnUse">
<stop stop-color="#D388FF"/>
<stop offset="0.695" stop-color="#4B94F7"/>
</linearGradient>
<linearGradient id="paint1_linear_5_117" x1="9.82791" y1="10.8475" x2="-3.2409" y2="-3.92592" gradientUnits="userSpaceOnUse">
<stop offset="0.0189477" stop-color="#89B5FF"/>
<stop offset="0.745" stop-color="#002886"/>
</linearGradient>
<linearGradient id="paint2_linear_5_117" x1="19.8938" y1="10.8474" x2="12.2704" y2="2.22955" gradientUnits="userSpaceOnUse">
<stop stop-color="white"/>
<stop offset="0.315" stop-color="#FF8CB6"/>
</linearGradient>
<linearGradient id="paint3_linear_5_117" x1="5.36765" y1="26.0916" x2="2.60039" y2="13.6139" gradientUnits="userSpaceOnUse">
<stop stop-color="#FF5FD7"/>
<stop offset="0.545" stop-color="#C86AFF"/>
</linearGradient>
<linearGradient id="paint4_linear_5_117" x1="25.0462" y1="32.551" x2="2.51142" y2="3.98021" gradientUnits="userSpaceOnUse">
<stop offset="0.340919" stop-color="#002DBF"/>
<stop offset="0.479627" stop-color="#4396F7"/>
<stop offset="0.634404" stop-color="#FF9BD2"/>
<stop offset="0.815235" stop-color="#C9FFFC"/>
</linearGradient>
</defs>
</svg>
